<svg xmlns="http://www.w3.org/2000/svg" viewBox="44 100 40 50" fill="none">
  <!-- Favicon de Ecos Digitales: extracción del micrófono que reemplaza la O
       en el logo del wordmark. Paths originales del logo-ecosdigitales-v2.svg,
       con viewBox cropeado al área del micrófono. -->

  <!-- Base/stem del micrófono -->
  <path d="m62.79 140.3v5.01h2.4v-5.01h-2.4z" fill="#B21C40" stroke="#B21C40" stroke-miterlimit="10" stroke-width="1.24"/>

  <!-- Cuerpo principal (relleno rojo) -->
  <path d="m61.48 104.6h3.24c5.79 0 8.73 4.92 8.73 11.26v13.03c0 6.35-3.43 11.26-9.22 11.26h-2.31c-5.8 0-9.2-4.91-9.2-11.26v-13.03c0-6.34 2.96-11.26 8.76-11.26z" fill="#B21C40" stroke="#B21C40" stroke-miterlimit="10" stroke-width="1.24"/>

  <!-- Outline interior (decorativo) -->
  <path d="m61.51 105.2h2.7c5.8 0 8.2 4.47 8.2 10.82v12.23c0 6.34-3.43 10.82-8.49 10.82h-1.51c-5.8 0-8.63-4.48-8.63-10.82v-12.23c0-6.35 1.94-10.82 7.73-10.82z" stroke="#B21C40" stroke-miterlimit="10" stroke-width="1.24"/>

  <!-- Grille (4 barritas blancas horizontales) -->
  <path d="m53.41 117.7h9.43v3.18h-9.43v-3.18z" fill="#fff"/>
  <path d="m63.78 117.7h8.66v3.18h-8.66v-3.18z" fill="#fff"/>
  <path d="m53.41 124.2h9.43v3.18h-9.43v-3.18z" fill="#fff"/>
  <path d="m63.78 124.2h8.66v3.18h-8.66v-3.18z" fill="#fff"/>
</svg>
