<svg xmlns="http://www.w3.org/2000/svg" version="1.1" xmlns:xlink="http://www.w3.org/1999/xlink" width="1000" height="1000"><metadata><rdf:RDF xmlns:rdf="http://www.w3.org/1999/02/22-rdf-syntax-ns#" xmlns:dc="http://purl.org/dc/elements/1.1/"><rdf:Description><dc:creator>RealFaviconGenerator</dc:creator><dc:source>https://realfavicongenerator.net</dc:source></rdf:Description></rdf:RDF></metadata><g clip-path="url(#SvgjsClipPath1129)"><rect width="1000" height="1000" fill="#ffffff"></rect><g transform="matrix(16,0,0,16,180,100)"><svg xmlns="http://www.w3.org/2000/svg" viewBox="44 100 40 50" fill="none" width="40" height="50"><path d="m62.79 140.3v5.01h2.4v-5.01h-2.4z" fill="#B21C40" stroke="#B21C40" stroke-miterlimit="10" stroke-width="1.24"></path><path d="m61.48 104.6h3.24c5.79 0 8.73 4.92 8.73 11.26v13.03c0 6.35-3.43 11.26-9.22 11.26h-2.31c-5.8 0-9.2-4.91-9.2-11.26v-13.03c0-6.34 2.96-11.26 8.76-11.26z" fill="#B21C40" stroke="#B21C40" stroke-miterlimit="10" stroke-width="1.24"></path><path d="m61.51 105.2h2.7c5.8 0 8.2 4.47 8.2 10.82v12.23c0 6.34-3.43 10.82-8.49 10.82h-1.51c-5.8 0-8.63-4.48-8.63-10.82v-12.23c0-6.35 1.94-10.82 7.73-10.82z" stroke="#B21C40" stroke-miterlimit="10" stroke-width="1.24"></path><path d="m53.41 117.7h9.43v3.18h-9.43v-3.18z" fill="#fff"></path><path d="m63.78 117.7h8.66v3.18h-8.66v-3.18z" fill="#fff"></path><path d="m53.41 124.2h9.43v3.18h-9.43v-3.18z" fill="#fff"></path><path d="m63.78 124.2h8.66v3.18h-8.66v-3.18z" fill="#fff"></path></svg></g></g><defs><clipPath id="SvgjsClipPath1129"><rect width="1000" height="1000" x="0" y="0" rx="200" ry="200"></rect></clipPath></defs></svg>